<svg version="1.1" id="Layer_1" xmlns="http://www.w3.org/2000/svg" xmlns:xlink="http://www.w3.org/1999/xlink" x="0px" y="0px"
	 width="100%" viewBox="0 0 579 579" enable-background="new 0 0 579 579" xml:space="preserve">
<path fill="#FFFFFF" opacity="1.000000" stroke="none" 
	d="
M580.000000,256.000000 
	C580.000000,278.687561 580.000000,301.375122 579.571960,324.538666 
	C578.793945,325.279541 578.185425,325.500458 578.131714,325.815765 
	C576.720276,334.112518 575.511841,342.446106 573.973816,350.718567 
	C570.083252,371.644470 563.774841,391.919922 554.310425,410.908844 
	C546.442322,426.695099 537.533447,442.073669 527.828613,456.804688 
	C516.212830,474.436188 502.318909,490.275665 486.364136,504.354523 
	C473.772400,515.465698 460.773163,525.877197 446.630524,534.932617 
	C428.018646,546.849670 408.379303,556.682495 387.533264,563.918945 
	C367.557556,570.853394 347.134918,576.147888 325.965881,578.078674 
	C325.258057,578.143250 324.652954,579.334106 324.000000,580.000000 
	C301.645782,580.000000 279.291534,580.000000 256.770111,579.634399 
	C253.520401,578.513916 250.448959,577.710022 247.353531,577.012634 
	C232.766678,573.726074 218.046188,570.944275 203.612549,567.087280 
	C183.039856,561.589783 164.010086,552.225525 145.501114,541.852722 
	C125.737343,530.776672 107.792175,517.090088 91.383430,501.600342 
	C81.613731,492.377777 72.976471,481.907867 64.236603,471.652313 
	C47.376469,451.868317 34.710701,429.479614 24.301760,405.748779 
	C14.304624,382.956818 7.343434,359.311035 3.893664,334.631927 
	C3.663488,332.985291 1.997935,331.539307 0.999999,330.000000 
	C1.000000,303.312439 1.000000,276.624878 1.335871,249.764954 
	C2.447646,248.250320 3.601074,246.996704 3.940464,245.551880 
	C6.992959,232.557129 9.491866,219.418716 12.946364,206.535126 
	C18.714123,185.024185 28.159826,164.984238 39.065147,145.648041 
	C50.605816,125.185303 64.841255,106.652306 80.966469,89.636383 
	C97.883163,71.785240 117.031769,56.534893 137.954102,43.642185 
	C154.933670,33.179070 172.804611,24.419790 191.649078,17.742380 
	C211.913132,10.561938 232.554977,5.011520 254.032639,2.921904 
	C254.744034,2.852691 255.346680,1.665865 256.000000,1.000002 
	C278.687561,1.000000 301.375122,1.000000 324.229889,1.365633 
	C327.478760,2.486090 330.549377,3.290134 333.644012,3.987342 
	C348.231445,7.273833 362.981171,9.965837 377.380188,13.932755 
	C398.356262,19.711647 417.876099,29.103777 436.717041,39.949516 
	C456.939850,51.590706 475.344421,65.670105 492.135986,81.766571 
	C508.436554,97.392372 522.374695,114.992989 534.672119,134.003967 
	C546.698242,152.595474 556.451538,172.269012 563.827820,193.015060 
	C570.844604,212.750015 575.895996,233.090149 578.077515,254.034439 
	C578.151855,254.748627 579.334167,255.347412 580.000000,256.000000 
M486.984314,218.484650 
	C483.275970,215.941422 479.567627,213.398193 475.977539,210.936050 
	C473.246796,214.617569 470.539886,218.023117 468.093079,221.606293 
	C454.728699,241.177414 441.505737,260.845428 428.087524,280.379395 
	C408.079712,309.506287 387.900208,338.515228 367.893768,367.643066 
	C358.665924,381.078186 349.839447,394.680786 336.686981,404.966278 
	C312.298401,424.038605 284.749817,431.316528 254.488220,426.796082 
	C232.074326,423.447937 212.737442,413.484406 197.386093,396.046417 
	C181.324783,377.801971 173.890839,356.306366 173.299088,332.664490 
	C172.970917,319.553680 174.768143,306.189972 177.281265,293.265717 
	C179.649002,281.089264 183.035370,268.879700 191.002075,258.689362 
	C194.094116,254.734253 197.041748,250.652725 199.843582,246.486496 
	C216.659592,221.481689 233.378967,196.411880 250.201370,171.411377 
	C261.457092,154.683762 272.847992,138.047180 284.143219,121.346062 
	C290.541382,111.885704 296.868500,102.377258 303.202820,92.927490 
	C273.175964,72.429108 243.422165,52.117123 213.655930,31.796656 
	C207.687241,40.209255 201.877625,48.167057 196.307617,56.289181 
	C174.783417,87.675453 153.353226,119.126198 131.849167,150.526321 
	C125.006546,160.517899 117.875488,170.315414 111.176994,180.401367 
	C102.541748,193.403503 93.423553,206.177429 85.960022,219.839920 
	C78.058502,234.304184 72.305519,249.831573 67.886101,265.838867 
	C63.319016,282.380951 60.958183,299.207764 60.113235,316.250732 
	C59.763702,323.300934 60.314419,330.451660 61.082726,337.488220 
	C62.227844,347.975922 63.167839,358.579163 65.541283,368.821320 
	C71.619659,395.051483 82.592735,419.289185 98.093987,441.309723 
	C109.807625,457.949707 123.377625,472.911469 139.221359,485.893738 
	C157.470718,500.847198 177.277161,512.976440 199.196167,521.605713 
	C229.360672,533.481262 260.498474,538.510376 292.938721,535.078979 
	C310.710632,533.199097 327.673798,528.877197 344.371918,522.440125 
	C369.421356,512.783691 390.857727,497.770111 410.400848,479.902527 
	C424.811035,466.727844 437.237488,451.669495 448.087463,435.394104 
	C484.650757,380.547546 521.151062,325.658966 557.762451,270.844574 
	C559.155457,268.759003 559.518616,268.089203 557.071655,266.438812 
	C533.805542,250.746201 510.678711,234.847000 486.984314,218.484650 
M429.517059,188.989838 
	C430.423553,187.548630 431.330078,186.107422 432.231689,184.674011 
	C422.580963,177.590790 413.350494,170.766312 404.067841,164.013580 
	C386.422119,151.177063 368.661957,138.495163 351.163971,125.460892 
	C348.131409,123.201965 346.757385,124.256920 345.173126,126.454094 
	C327.315308,151.221481 309.614563,176.103104 291.630157,200.778030 
	C269.154022,231.615723 246.452347,262.289032 223.512909,293.489105 
	C251.871078,314.172974 280.034241,334.714630 308.389740,355.396576 
	C312.101440,350.195251 315.527405,345.300873 319.048737,340.476135 
	C334.017639,319.966644 349.011902,299.475616 364.002625,278.982025 
	C375.365845,263.447601 386.779663,247.949936 398.093414,232.379547 
	C408.447144,218.130402 418.696930,203.805664 429.517059,188.989838 
z"/>
<path fill="#000000" opacity="1.000000" stroke="none" 
	d="
M324.468658,580.000000 
	C324.652954,579.334106 325.258057,578.143250 325.965881,578.078674 
	C347.134918,576.147888 367.557556,570.853394 387.533264,563.918945 
	C408.379303,556.682495 428.018646,546.849670 446.630524,534.932617 
	C460.773163,525.877197 473.772400,515.465698 486.364136,504.354523 
	C502.318909,490.275665 516.212830,474.436188 527.828613,456.804688 
	C537.533447,442.073669 546.442322,426.695099 554.310425,410.908844 
	C563.774841,391.919922 570.083252,371.644470 573.973816,350.718567 
	C575.511841,342.446106 576.720276,334.112518 578.131714,325.815765 
	C578.185425,325.500458 578.793945,325.279541 579.571960,325.007324 
	C580.000000,409.927185 580.000000,494.854370 580.000000,580.000000 
	C494.979218,580.000000 409.958282,580.000000 324.468658,580.000000 
z"/>
<path fill="#000000" opacity="1.000000" stroke="none" 
	d="
M580.000000,255.531342 
	C579.334167,255.347412 578.151855,254.748627 578.077515,254.034439 
	C575.895996,233.090149 570.844604,212.750015 563.827820,193.015060 
	C556.451538,172.269012 546.698242,152.595474 534.672119,134.003967 
	C522.374695,114.992989 508.436554,97.392372 492.135986,81.766571 
	C475.344421,65.670105 456.939850,51.590706 436.717041,39.949516 
	C417.876099,29.103777 398.356262,19.711647 377.380188,13.932755 
	C362.981171,9.965837 348.231445,7.273833 333.644012,3.987342 
	C330.549377,3.290134 327.478760,2.486090 324.698547,1.365633 
	C409.927032,1.000000 494.854095,1.000000 580.000000,1.000000 
	C580.000000,85.687439 580.000000,170.375061 580.000000,255.531342 
z"/>
<path fill="#000000" opacity="1.000000" stroke="none" 
	d="
M0.999999,330.468658 
	C1.997935,331.539307 3.663488,332.985291 3.893664,334.631927 
	C7.343434,359.311035 14.304624,382.956818 24.301760,405.748779 
	C34.710701,429.479614 47.376469,451.868317 64.236603,471.652313 
	C72.976471,481.907867 81.613731,492.377777 91.383430,501.600342 
	C107.792175,517.090088 125.737343,530.776672 145.501114,541.852722 
	C164.010086,552.225525 183.039856,561.589783 203.612549,567.087280 
	C218.046188,570.944275 232.766678,573.726074 247.353531,577.012634 
	C250.448959,577.710022 253.520401,578.513916 256.301453,579.634399 
	C171.073685,580.000000 86.147362,580.000000 1.000000,580.000000 
	C1.000000,496.979248 1.000000,413.958282 0.999999,330.468658 
z"/>
<path fill="#000000" opacity="1.000000" stroke="none" 
	d="
M255.531342,1.000002 
	C255.346680,1.665865 254.744034,2.852691 254.032639,2.921904 
	C232.554977,5.011520 211.913132,10.561938 191.649078,17.742380 
	C172.804611,24.419790 154.933670,33.179070 137.954102,43.642185 
	C117.031769,56.534893 97.883163,71.785240 80.966469,89.636383 
	C64.841255,106.652306 50.605816,125.185303 39.065147,145.648041 
	C28.159826,164.984238 18.714123,185.024185 12.946364,206.535126 
	C9.491866,219.418716 6.992959,232.557129 3.940464,245.551880 
	C3.601074,246.996704 2.447646,248.250320 1.335871,249.296295 
	C1.000000,166.405273 1.000000,83.810555 1.000000,1.000000 
	C85.687439,1.000000 170.375061,1.000000 255.531342,1.000002 
z"/>
<path fill="#000000" opacity="1.000000" stroke="none" 
	d="
M487.248077,218.745926 
	C510.678711,234.847000 533.805542,250.746201 557.071655,266.438812 
	C559.518616,268.089203 559.155457,268.759003 557.762451,270.844574 
	C521.151062,325.658966 484.650757,380.547546 448.087463,435.394104 
	C437.237488,451.669495 424.811035,466.727844 410.400848,479.902527 
	C390.857727,497.770111 369.421356,512.783691 344.371918,522.440125 
	C327.673798,528.877197 310.710632,533.199097 292.938721,535.078979 
	C260.498474,538.510376 229.360672,533.481262 199.196167,521.605713 
	C177.277161,512.976440 157.470718,500.847198 139.221359,485.893738 
	C123.377625,472.911469 109.807625,457.949707 98.093987,441.309723 
	C82.592735,419.289185 71.619659,395.051483 65.541283,368.821320 
	C63.167839,358.579163 62.227844,347.975922 61.082726,337.488220 
	C60.314419,330.451660 59.763702,323.300934 60.113235,316.250732 
	C60.958183,299.207764 63.319016,282.380951 67.886101,265.838867 
	C72.305519,249.831573 78.058502,234.304184 85.960022,219.839920 
	C93.423553,206.177429 102.541748,193.403503 111.176994,180.401367 
	C117.875488,170.315414 125.006546,160.517899 131.849167,150.526321 
	C153.353226,119.126198 174.783417,87.675453 196.307617,56.289181 
	C201.877625,48.167057 207.687241,40.209255 213.655930,31.796656 
	C243.422165,52.117123 273.175964,72.429108 303.202820,92.927490 
	C296.868500,102.377258 290.541382,111.885704 284.143219,121.346062 
	C272.847992,138.047180 261.457092,154.683762 250.201370,171.411377 
	C233.378967,196.411880 216.659592,221.481689 199.843582,246.486496 
	C197.041748,250.652725 194.094116,254.734253 191.002075,258.689362 
	C183.035370,268.879700 179.649002,281.089264 177.281265,293.265717 
	C174.768143,306.189972 172.970917,319.553680 173.299088,332.664490 
	C173.890839,356.306366 181.324783,377.801971 197.386093,396.046417 
	C212.737442,413.484406 232.074326,423.447937 254.488220,426.796082 
	C284.749817,431.316528 312.298401,424.038605 336.686981,404.966278 
	C349.839447,394.680786 358.665924,381.078186 367.893768,367.643066 
	C387.900208,338.515228 408.079712,309.506287 428.087524,280.379395 
	C441.505737,260.845428 454.728699,241.177414 468.093079,221.606293 
	C470.539886,218.023117 473.246796,214.617569 475.977539,210.936050 
	C479.567627,213.398193 483.275970,215.941422 487.248077,218.745926 
z"/>
<path fill="#000000" opacity="1.000000" stroke="none" 
	d="
M429.254761,189.252045 
	C418.696930,203.805664 408.447144,218.130402 398.093414,232.379547 
	C386.779663,247.949936 375.365845,263.447601 364.002625,278.982025 
	C349.011902,299.475616 334.017639,319.966644 319.048737,340.476135 
	C315.527405,345.300873 312.101440,350.195251 308.389740,355.396576 
	C280.034241,334.714630 251.871078,314.172974 223.512909,293.489105 
	C246.452347,262.289032 269.154022,231.615723 291.630157,200.778030 
	C309.614563,176.103104 327.315308,151.221481 345.173126,126.454094 
	C346.757385,124.256920 348.131409,123.201965 351.163971,125.460892 
	C368.661957,138.495163 386.422119,151.177063 404.067841,164.013580 
	C413.350494,170.766312 422.580963,177.590790 432.231689,184.674011 
	C431.330078,186.107422 430.423553,187.548630 429.254761,189.252045 
z"/>
</svg>